<svg width="63" height="63" viewBox="0 0 63 63" fill="none" xmlns="http://www.w3.org/2000/svg">
<g filter="url(#filter0_d_59_4)">
<circle cx="31.5" cy="27.5" r="25" stroke="#007BFF" stroke-width="3"/>
<path d="M17 25.5C16.1716 25.5 15.5 26.1716 15.5 27C15.5 27.8284 16.1716 28.5 17 28.5V25.5ZM47.0607 28.0607C47.6464 27.4749 47.6464 26.5251 47.0607 25.9393L37.5147 16.3934C36.9289 15.8076 35.9792 15.8076 35.3934 16.3934C34.8076 16.9792 34.8076 17.9289 35.3934 18.5147L43.8787 27L35.3934 35.4853C34.8076 36.0711 34.8076 37.0208 35.3934 37.6066C35.9792 38.1924 36.9289 38.1924 37.5147 37.6066L47.0607 28.0607ZM17 28.5L46 28.5V25.5L17 25.5V28.5Z" fill="#007BFF"/>
</g>
<defs>
<filter id="filter0_d_59_4" x="0.8" y="0.8" width="61.4" height="61.4" filterUnits="userSpaceOnUse" color-interpolation-filters="sRGB">
<feFlood flood-opacity="0" result="BackgroundImageFix"/>
<feColorMatrix in="SourceAlpha" type="matrix" values="0 0 0 0 0 0 0 0 0 0 0 0 0 0 0 0 0 0 127 0" result="hardAlpha"/>
<feOffset dy="4"/>
<feGaussianBlur stdDeviation="2.1"/>
<feComposite in2="hardAlpha" operator="out"/>
<feColorMatrix type="matrix" values="0 0 0 0 0 0 0 0 0 0 0 0 0 0 0 0 0 0 0.35 0"/>
<feBlend mode="normal" in2="BackgroundImageFix" result="effect1_dropShadow_59_4"/>
<feBlend mode="normal" in="SourceGraphic" in2="effect1_dropShadow_59_4" result="shape"/>
</filter>
</defs>
</svg>
